<svg width="24" height="24" viewBox="0 0 24 24" fill="none" xmlns="http://www.w3.org/2000/svg">
<path fill-rule="evenodd" clip-rule="evenodd" d="M3 3.5C3 3.77614 3.22386 4 3.5 4L4 4.01485V6.5C4 6.77614 4.22386 7 4.5 7C4.77614 7 5 6.77614 5 6.5V3.5C5 3.22 4.78 3 4.5 3H3.5C3.22386 3 3 3.22386 3 3.5ZM19 4H9C8.44772 4 8 4.44772 8 5C8 5.55228 8.44772 6 9 6H19C19.5523 6 20 5.55228 20 5C20 4.44772 19.5523 4 19 4ZM19 11H9C8.44772 11 8 11.4477 8 12C8 12.5523 8.44772 13 9 13H19C19.5523 13 20 12.5523 20 12C20 11.4477 19.5523 11 19 11ZM9 18H19C19.5523 18 20 18.4477 20 19C20 19.5523 19.5523 20 19 20H9C8.44772 20 8 19.5523 8 19C8 18.4477 8.44772 18 9 18ZM5.5 10C5.78 10 6 10.22 6 10.5V11L4.3 13H5.5C5.78 13 6 13.22 6 13.5C6 13.78 5.77558 14 5.5 14H3.5C3.22 14 3 13.78 3 13.5V13L4.7 11H3.5C3.22 11 3 10.78 3 10.5C3 10.22 3.19889 10 3.5 10H5.5ZM3 20.5C3 20.7761 3.22386 21 3.5 21H5.5C5.77614 21 6 20.7761 6 20.5V17.5C6 17.2239 5.77614 17 5.5 17H3.5C3.22386 17 3 17.2239 3 17.5C3 17.7761 3.22386 18 3.5 18H5V18.5H3.5C3.22386 18.5 3 18.7239 3 19C3 19.2761 3.22386 19.5 3.5 19.5H5V20H3.5C3.22386 20 3 20.2239 3 20.5Z" fill="black"/>
</svg>
