<svg width="24" height="24" viewBox="0 0 24 24" fill="none" xmlns="http://www.w3.org/2000/svg">
<path d="M8.16788 18C7.79075 18 7.49878 17.9046 7.29197 17.7139C7.09732 17.5119 7 17.237 7 16.8892V7.09397C7 6.73492 7.10341 6.46564 7.31022 6.28612C7.51703 6.09537 7.809 6 8.18613 6H12.5839C13.9951 6 15.0839 6.32539 15.8504 6.97616C16.6168 7.62693 17 8.53576 17 9.70267C17 10.8696 16.6168 11.784 15.8504 12.446C15.0839 13.0968 13.9951 13.4222 12.5839 13.4222H9.33577V16.8892C9.33577 17.237 9.23844 17.5119 9.0438 17.7139C8.84915 17.9046 8.55718 18 8.16788 18ZM9.33577 11.7223H12.219C13.0462 11.7223 13.6727 11.554 14.0985 11.2174C14.5243 10.8696 14.7372 10.3647 14.7372 9.70267C14.7372 9.04067 14.5243 8.54137 14.0985 8.20477C13.6727 7.86816 13.0462 7.69986 12.219 7.69986H9.33577V11.7223Z" fill="black"/>
</svg>
