<svg width="24" height="24" viewBox="0 0 24 24" fill="none" xmlns="http://www.w3.org/2000/svg">
<g clip-path="url(#clip0_105_1039)">
<path fill-rule="evenodd" clip-rule="evenodd" d="M6.34312 20.4853L3.51469 17.6569C2.94834 17.0905 3.17581 15.7303 3.83379 14.1213L-0.020844 14.1213V12.7071L2.80758 9.87868L6.177 9.87868C6.9192 8.79326 7.71654 7.79815 8.46444 7.05025C11.2929 4.22183 16.9497 2.80761 19.071 4.92893C21.1924 7.05025 19.7781 12.7071 16.9497 15.5355C16.2018 16.2834 15.2067 17.0808 14.1213 17.823V21.1924L11.2929 24.0208H9.87865L9.87865 20.1662C8.26964 20.8242 6.90947 21.0516 6.34312 20.4853ZM6.34312 17.6569L7.48528 18.799C7.56721 18.7901 7.66887 18.7741 7.78725 18.7492C8.40921 18.6182 9.26153 18.2926 10.2217 17.8125C12.1793 16.8337 14.2947 15.3622 15.5355 14.1213C17.797 11.8598 18.7571 7.44343 17.6568 6.34315C16.5565 5.24286 12.1402 6.20294 9.87865 8.46447C8.6378 9.70532 7.16624 11.8207 6.18743 13.7783C5.70736 14.7384 5.38176 15.5908 5.25082 16.2127C5.2259 16.3311 5.20985 16.4328 5.20095 16.5147L6.34312 17.6569ZM12 12C12.781 12.781 14.0473 12.781 14.8284 12C15.6094 11.219 15.6094 9.95262 14.8284 9.17157C14.0473 8.39053 12.781 8.39053 12 9.17157C11.2189 9.95262 11.2189 11.219 12 12Z" fill="black"/>
</g>
<defs>
<clipPath id="clip0_105_1039">
<rect width="24" height="24" fill="white"/>
</clipPath>
</defs>
</svg>
