<svg width="24" height="24" viewBox="0 0 24 24" fill="none" xmlns="http://www.w3.org/2000/svg">
<path fill-rule="evenodd" clip-rule="evenodd" d="M3.58733 7.05687L4.6279 11.6983C4.62851 11.7009 4.62987 11.7066 4.6316 11.7138C4.63508 11.7281 4.64083 11.7512 4.64898 11.7822C4.66528 11.8441 4.69106 11.937 4.72727 12.053C4.79998 12.2862 4.91307 12.6076 5.07312 12.9577C5.40353 13.6804 5.88737 14.4218 6.53596 14.8328C7.84848 15.6646 8.9152 15.8826 9.79148 15.6862C10.6678 15.4897 11.5393 14.8372 12.3711 13.5246C12.7821 12.8761 12.9031 11.9991 12.8934 11.2045C12.8886 10.8195 12.8537 10.4806 12.8199 10.2387C12.8031 10.1183 12.7867 10.0233 12.775 9.96037C12.7692 9.92892 12.7645 9.90557 12.7616 9.89112C12.7607 9.88685 12.7599 9.88336 12.7594 9.88067L12.7584 9.87629L12.7582 9.87514L11.6404 4.88905C11.6051 4.85836 11.5219 4.79898 11.3544 4.74023C10.8717 4.57095 9.75107 4.43007 7.38677 4.96013C5.04839 5.48438 4.14715 6.17636 3.81026 6.59262C3.64648 6.79498 3.60478 6.9447 3.59283 7.01122C3.58916 7.03161 3.5878 7.04703 3.58733 7.05687ZM12.3912 4.61075C13.1655 4.43715 13.165 4.43471 13.165 4.43471L13.1644 4.43222L13.1632 4.42712C13.1624 4.42367 13.1615 4.4201 13.1606 4.41643C13.1588 4.40908 13.1567 4.4013 13.1544 4.39311C13.1498 4.37673 13.1443 4.35869 13.1377 4.33918C13.1245 4.30015 13.1068 4.25525 13.0833 4.20597C13.0359 4.10685 12.966 3.9923 12.8639 3.87382C12.6561 3.63262 12.3407 3.40429 11.8796 3.24259C10.9832 2.92816 9.51479 2.85656 7.03957 3.41149C4.53844 3.97223 3.23475 4.78096 2.57659 5.59417C2.24284 6.00655 2.08949 6.40375 2.03077 6.73048C2.0019 6.89111 1.99694 7.02878 2.00146 7.13617C2.00372 7.1898 2.00834 7.23585 2.01351 7.27349C2.0161 7.29232 2.01883 7.30908 2.02148 7.32365C2.02281 7.33095 2.02411 7.3377 2.02537 7.3439C2.026 7.347 2.02662 7.34996 2.02723 7.35279L2.02812 7.35692L2.02856 7.35891C2.02856 7.35891 2.02899 7.36084 2.8026 7.1874L2.02899 7.36084L3.07926 12.0455L3.85358 11.8719C3.07926 12.0455 3.07926 12.0455 3.07926 12.0455L3.07973 12.0476L3.08042 12.0506L3.08147 12.0552L3.08247 12.0595C3.08414 12.0667 3.08641 12.0762 3.08929 12.0881C3.09506 12.1119 3.10331 12.1449 3.11417 12.1862C3.13589 12.2687 3.16817 12.3846 3.21217 12.5256C3.29986 12.8067 3.43569 13.1932 3.62972 13.6176C4.00747 14.4439 4.65243 15.5181 5.6864 16.1734C7.20458 17.1355 8.70601 17.556 10.1387 17.2348C12.8371 16.6299 14.5126 13.808 14.4803 11.185C14.4733 10.6121 14.4062 10.0493 14.2969 9.48828C13.6714 9.74625 13.6714 9.74625 14.2969 9.48828L13.1655 4.43715L12.3912 4.61075Z" fill="black"/>
<path d="M9.86352 17.2873C9.96287 17.5354 10.0847 17.779 10.2334 18.0116C11.2018 19.5258 12.3841 20.5422 13.8181 20.8575C15.2521 21.1728 16.7518 20.7462 18.266 19.7778C19.2973 19.1183 19.9378 18.0414 20.3122 17.2136C20.5044 16.7884 20.6387 16.4014 20.7252 16.1199C20.7686 15.9787 20.8004 15.8627 20.8218 15.7801C20.8325 15.7388 20.8406 15.7057 20.8463 15.6819C20.8491 15.67 20.8514 15.6604 20.853 15.6533L20.8542 15.6478L20.855 15.6444L20.8557 15.6413L20.856 15.6402C20.856 15.6402 20.8562 15.6392 20.0811 15.4688L20.856 15.6402L21.9766 10.5434L21.2016 10.373C21.9766 10.5434 21.9772 10.541 21.9772 10.541L21.9777 10.5385L21.9788 10.5334L21.9795 10.5298L21.9802 10.5264L21.981 10.5226C21.9824 10.5151 21.9838 10.5072 21.9852 10.4988C21.988 10.482 21.9907 10.4634 21.9929 10.4429C21.9974 10.4019 22.0004 10.3538 22 10.2992C21.999 10.1893 21.9841 10.0559 21.9418 9.90537C21.8556 9.59889 21.6664 9.25854 21.3172 8.91692C20.638 8.25263 19.3379 7.56633 16.8604 7.02158C15.5467 6.73271 14.5028 6.64528 13.6714 6.69365L14.0245 8.26875C14.6375 8.26002 15.45 8.33645 16.5196 8.57164C18.886 9.09198 19.8418 9.69388 20.2074 10.0515C20.3343 10.1756 20.3846 10.2647 20.4035 10.3074L19.3064 15.297L19.3062 15.298L19.3059 15.2992C19.3053 15.3018 19.3042 15.3068 19.3025 15.3139C19.299 15.3283 19.2934 15.3514 19.2854 15.3824C19.2693 15.4444 19.2439 15.5373 19.2082 15.6536C19.1364 15.887 19.0247 16.2089 18.8661 16.5597C18.5386 17.2837 18.0578 18.0271 17.4109 18.4408C16.1018 19.2779 15.036 19.5003 14.159 19.3075C13.2819 19.1146 12.4077 18.4656 11.5705 17.1565C11.4911 17.0323 11.4223 16.8997 11.363 16.7607C10.9772 16.9784 10.5695 17.1382 10.1387 17.2348C10.0472 17.2553 9.95551 17.2728 9.86352 17.2873Z" fill="black"/>
</svg>
