<svg width="24" height="24" viewBox="0 0 24 24" fill="none" xmlns="http://www.w3.org/2000/svg">
<path d="M4.10088 18C3.74539 18 3.47017 17.9057 3.27522 17.7171C3.09174 17.5173 3 17.2455 3 16.9015V7.09848C3 6.74341 3.09174 6.47157 3.27522 6.28294C3.47017 6.09431 3.74539 6 4.10088 6C4.45637 6 4.72586 6.09431 4.90934 6.28294C5.10428 6.47157 5.20176 6.74341 5.20176 7.09848V11.0264H11.4458V7.09848C11.4458 6.74341 11.5375 6.47157 11.721 6.28294C11.916 6.09431 12.1912 6 12.5467 6C12.9022 6 13.1717 6.09431 13.3551 6.28294C13.5501 6.47157 13.6476 6.74341 13.6476 7.09848V16.9015C13.6476 17.2455 13.5501 17.5173 13.3551 17.7171C13.1717 17.9057 12.9022 18 12.5467 18C12.1912 18 11.916 17.9057 11.721 17.7171C11.5375 17.5173 11.4458 17.2455 11.4458 16.9015V12.8072H5.20176V16.9015C5.20176 17.2455 5.11002 17.5173 4.92654 17.7171C4.74306 17.9057 4.46784 18 4.10088 18Z" fill="black"/>
<path d="M16.7685 17.8669C16.2754 17.8669 16.0288 17.6338 16.0288 17.1678C16.0288 16.9459 16.0919 16.7739 16.2181 16.6519C16.3442 16.5298 16.5277 16.4688 16.7685 16.4688H17.835V12.3079H18.5574L17.1469 13.0735C16.9061 13.2067 16.6882 13.2455 16.4933 13.19C16.2983 13.1234 16.155 13.0125 16.0632 12.8571C15.983 12.6907 15.9658 12.5132 16.0116 12.3246C16.0575 12.1359 16.2009 11.975 16.4417 11.8419L17.8694 11.0596C18.0299 10.9709 18.1847 10.8988 18.3338 10.8433C18.4829 10.7878 18.6434 10.7601 18.8154 10.7601C18.976 10.7601 19.1079 10.7933 19.2111 10.8599C19.3257 10.9154 19.4118 10.9986 19.4691 11.1096C19.5264 11.2205 19.5551 11.3537 19.5551 11.509V16.4688H20.2431C20.7477 16.4688 21 16.7018 21 17.1678C21 17.3897 20.9312 17.5617 20.7936 17.6838C20.6674 17.8058 20.484 17.8669 20.2431 17.8669H16.7685Z" fill="black"/>
</svg>
