<svg width="24" height="24" viewBox="0 0 24 24" fill="none" xmlns="http://www.w3.org/2000/svg">
<path fill-rule="evenodd" clip-rule="evenodd" d="M7.7057 19.074C9.01099 19.6683 10.466 20 12 20C16.9367 20 21.0545 16.5645 22 12C21.623 10.1797 20.7414 8.53897 19.5045 7.22407L16.6306 10.1104C16.8688 10.6934 17 11.3314 17 12C17 14.7614 14.7614 17 12 17C11.339 17 10.708 16.8717 10.1304 16.6388L7.7057 19.074ZM11.7707 14.9914C11.8464 14.9971 11.9229 15 12 15C13.6569 15 15 13.6569 15 12C15 11.9185 14.9967 11.8377 14.9904 11.7578L11.7707 14.9914ZM12.0903 9.00134L9.00174 12.1032C9.00058 12.069 9 12.0346 9 12C9 10.3432 10.3431 9.00001 12 9.00001C12.0302 9.00001 12.0603 9.00045 12.0903 9.00134ZM13.7642 7.32015C13.2156 7.11323 12.621 7.00001 12 7.00001C9.23858 7.00001 7 9.23858 7 12C7 12.6287 7.11602 13.2302 7.32781 13.7844L4.42477 16.7C3.22503 15.3981 2.36982 13.7854 2 12C2.94545 7.43553 7.06333 4.00001 12 4.00001C13.4945 4.00001 14.914 4.31489 16.1932 4.88064L13.7642 7.32015Z" fill="black"/>
<path fill-rule="evenodd" clip-rule="evenodd" d="M3.32711 19.3997L18.8332 3.42236L20.2684 4.81526L4.76233 20.7926L3.32711 19.3997Z" fill="black"/>
</svg>
