<svg width="24" height="24" viewBox="0 0 24 24" fill="none" xmlns="http://www.w3.org/2000/svg">
<path fill-rule="evenodd" clip-rule="evenodd" d="M11 9C11 10.6569 9.65685 12 8 12C6.34315 12 5 10.6569 5 9C5 7.34315 6.34315 6 8 6C9.65685 6 11 7.34315 11 9ZM19 9C19 10.6569 17.6569 12 16 12C14.3431 12 13 10.6569 13 9C13 7.34315 14.3431 6 16 6C17.6569 6 19 7.34315 19 9ZM8 14C5.61062 14 3.46589 15.0475 2 16.7084V18H14V16.7084C12.5341 15.0475 10.3894 14 8 14ZM16 15.952V18H22V16.7084C20.5341 15.0475 18.3894 14 16 14C15.3986 14 14.8126 14.0664 14.2491 14.1922C14.6966 14.5508 15.1151 14.9494 15.4995 15.3849L16 15.952Z" fill="black"/>
</svg>
