<svg width="14" height="14" viewBox="0 0 14 14" fill="none" xmlns="http://www.w3.org/2000/svg">
<path fill-rule="evenodd" clip-rule="evenodd" d="M1 6.93785C1 6.38557 1.44772 5.93785 2 5.93785H11C11.5523 5.93785 12 6.38557 12 6.93785C12 7.49014 11.5523 7.93785 11 7.93785H2C1.44772 7.93785 1 7.49014 1 6.93785Z" fill="black"/>
<path fill-rule="evenodd" clip-rule="evenodd" d="M3.75 2.13414C4.2283 1.858 4.83989 2.02187 5.11603 2.50017L9.61603 10.2944C9.89217 10.7727 9.72829 11.3843 9.25 11.6604C8.77171 11.9366 8.16012 11.7727 7.88398 11.2944L3.38398 3.50017C3.10783 3.02187 3.27171 2.41028 3.75 2.13414Z" fill="black"/>
<path fill-rule="evenodd" clip-rule="evenodd" d="M9.25 2.13414C9.7283 2.41028 9.89217 3.02187 9.61603 3.50017L5.11603 11.2944C4.83988 11.7727 4.22829 11.9366 3.75 11.6604C3.27171 11.3843 3.10783 10.7727 3.38398 10.2944L7.88398 2.50017C8.16012 2.02187 8.77171 1.858 9.25 2.13414Z" fill="black"/>
</svg>
