<svg width="24" height="24" viewBox="0 0 24 24" fill="none" xmlns="http://www.w3.org/2000/svg">
<path fill-rule="evenodd" clip-rule="evenodd" d="M4 20C4 20 4 4 4 4C4 2.9 4.9 2 6 2H11C14 2 16.9655 3.4 17 6.91892C17 8.75676 16.069 10.6486 14.4682 11.2432V11.3784C16.5009 11.8919 18 13.4054 18 16.1081C18 17.1299 17.7972 18.0125 17.4267 18.7608C16.3373 20.9614 14.0907 22 11 22H6C4.9 22 4 21.1 4 20ZM7 19H11C13.5662 19 15 17.8 15 16C15 14.2 13.5917 13 11 13H7V19ZM7 10H10C12.3884 10 14 9.15 14 7.45C14 5.75 12.5 5 9.99637 5H7V10Z" fill="black"/>
</svg>
