<svg width="24" height="24" viewBox="0 0 24 24" fill="none" xmlns="http://www.w3.org/2000/svg">
<path fill-rule="evenodd" clip-rule="evenodd" d="M9.23075 3.69235H3.69228L3.69228 9.23081H9.23075V3.69235ZM11.0769 20.3077V14.7693C11.0769 13.7497 10.2503 12.9231 9.23075 12.9231H3.69228C2.67268 12.9231 1.84613 13.7497 1.84613 14.7693V20.3077C1.84613 21.3273 2.67268 22.1539 3.69228 22.1539H9.23075C10.2503 22.1539 11.0769 21.3273 11.0769 20.3077ZM11.0769 9.23081V3.69235C11.0769 2.67274 10.2503 1.84619 9.23075 1.84619H3.69228C2.67268 1.84619 1.84613 2.67274 1.84613 3.69235V9.23081C1.84613 10.2504 2.67268 11.077 3.69228 11.077H9.23075C10.2503 11.077 11.0769 10.2504 11.0769 9.23081ZM20.3077 3.69235H14.7692V9.23081H20.3077V3.69235ZM9.23075 14.7693H3.69228L3.69228 20.3077H9.23075V14.7693ZM20.3077 14.7693H14.7692V20.3077H20.3077V14.7693ZM14.7692 1.84619C13.7496 1.84619 12.9231 2.67274 12.9231 3.69235V9.23081C12.9231 10.2504 13.7496 11.077 14.7692 11.077H20.3077C21.3273 11.077 22.1538 10.2504 22.1538 9.23081V3.69235C22.1538 2.67274 21.3273 1.84619 20.3077 1.84619H14.7692ZM14.7692 12.9231C13.7496 12.9231 12.9231 13.7497 12.9231 14.7693V20.3077C12.9231 21.3273 13.7496 22.1539 14.7692 22.1539H20.3077C21.3273 22.1539 22.1538 21.3273 22.1538 20.3077V14.7693C22.1538 13.7497 21.3273 12.9231 20.3077 12.9231H14.7692Z" fill="black"/>
</svg>
