<svg width="24" height="24" viewBox="0 0 24 24" fill="none" xmlns="http://www.w3.org/2000/svg">
<path d="M5.03773 18C4.70263 18 4.4432 17.9057 4.25943 17.7171C4.08648 17.5173 4 17.2455 4 16.9015V7.09848C4 6.74341 4.08648 6.47157 4.25943 6.28294C4.4432 6.09431 4.70263 6 5.03773 6C5.37284 6 5.62687 6.09431 5.79982 6.28294C5.98359 6.47157 6.07547 6.74341 6.07547 7.09848V11.0264H11.9614V7.09848C11.9614 6.74341 12.0478 6.47157 12.2208 6.28294C12.4046 6.09431 12.664 6 12.9991 6C13.3342 6 13.5882 6.09431 13.7612 6.28294C13.945 6.47157 14.0368 6.74341 14.0368 7.09848V16.9015C14.0368 17.2455 13.945 17.5173 13.7612 17.7171C13.5882 17.9057 13.3342 18 12.9991 18C12.664 18 12.4046 17.9057 12.2208 17.7171C12.0478 17.5173 11.9614 17.2455 11.9614 16.9015V12.8072H6.07547V16.9015C6.07547 17.2455 5.98899 17.5173 5.81604 17.7171C5.64308 17.9057 5.38365 18 5.03773 18Z" fill="black"/>
<path d="M16.7842 17.8669C16.568 17.8669 16.3842 17.8003 16.2329 17.6671C16.0924 17.5229 16.0221 17.3398 16.0221 17.1179C16.0221 16.9404 16.0599 16.785 16.1356 16.6519C16.2113 16.5187 16.314 16.3856 16.4437 16.2524L18.0814 14.4882C18.3516 14.1997 18.5408 13.939 18.6489 13.706C18.7678 13.473 18.8272 13.2399 18.8272 13.0069C18.8272 12.7295 18.7462 12.5187 18.584 12.3745C18.4327 12.2191 18.2003 12.1415 17.8868 12.1415C17.703 12.1415 17.5139 12.1748 17.3193 12.2413C17.1247 12.2968 16.9409 12.3745 16.768 12.4743C16.5734 12.5853 16.3951 12.613 16.2329 12.5576C16.0816 12.5021 15.9681 12.4022 15.8924 12.258C15.8167 12.1026 15.8005 11.9362 15.8438 11.7587C15.887 11.5811 16.0059 11.4313 16.2005 11.3093C16.4815 11.1318 16.8058 10.9986 17.1734 10.9098C17.5409 10.81 17.903 10.7601 18.2597 10.7601C18.7354 10.7601 19.1461 10.8433 19.492 11.0097C19.838 11.1761 20.1028 11.4092 20.2866 11.7087C20.4811 12.0083 20.5784 12.3634 20.5784 12.7739C20.5784 13.1401 20.4919 13.4951 20.319 13.8391C20.1568 14.1831 19.8812 14.5603 19.492 14.9709L17.9354 16.6186V16.4688H20.3028C20.7676 16.4688 21 16.7018 21 17.1678C21 17.3897 20.9405 17.5617 20.8216 17.6838C20.7027 17.8058 20.5298 17.8669 20.3028 17.8669H16.7842Z" fill="black"/>
</svg>
