<svg width="24" height="24" viewBox="0 0 24 24" fill="none" xmlns="http://www.w3.org/2000/svg">
<path d="M5.04773 18C4.7094 18 4.44747 17.9057 4.26193 17.7171C4.08731 17.5173 4 17.2455 4 16.9015V7.09848C4 6.74341 4.08731 6.47157 4.26193 6.28294C4.44747 6.09431 4.7094 6 5.04773 6C5.38606 6 5.64253 6.09431 5.81715 6.28294C6.00269 6.47157 6.09546 6.74341 6.09546 7.09848V11.0264H12.038V7.09848C12.038 6.74341 12.1253 6.47157 12.3 6.28294C12.4855 6.09431 12.7474 6 13.0858 6C13.4241 6 13.6806 6.09431 13.8552 6.28294C14.0407 6.47157 14.1335 6.74341 14.1335 7.09848V16.9015C14.1335 17.2455 14.0407 17.5173 13.8552 17.7171C13.6806 17.9057 13.4241 18 13.0858 18C12.7474 18 12.4855 17.9057 12.3 17.7171C12.1253 17.5173 12.038 17.2455 12.038 16.9015V12.8072H6.09546V16.9015C6.09546 17.2455 6.00815 17.5173 5.83352 17.7171C5.6589 17.9057 5.39697 18 5.04773 18Z" fill="black"/>
<path d="M18.4298 17.9501C18.0042 17.9501 17.6058 17.9057 17.2347 17.8169C16.8637 17.7171 16.5362 17.5784 16.2525 17.4008C16.056 17.2788 15.9305 17.129 15.876 16.9515C15.8323 16.7739 15.8487 16.6075 15.9251 16.4522C16.0015 16.2968 16.1215 16.1969 16.2852 16.1526C16.4489 16.0971 16.6454 16.1304 16.8746 16.2524C17.0928 16.3634 17.3111 16.4466 17.5294 16.5021C17.7586 16.5465 17.9932 16.5687 18.2333 16.5687C18.5935 16.5687 18.8773 16.4965 19.0846 16.3523C19.292 16.208 19.3957 15.9917 19.3957 15.7032C19.3957 15.448 19.3029 15.2705 19.1174 15.1706C18.9318 15.0707 18.6699 15.0208 18.3316 15.0208H17.6113C17.3712 15.0208 17.1856 14.9598 17.0546 14.8377C16.9346 14.7157 16.8746 14.5437 16.8746 14.3218C16.8746 14.0999 16.9346 13.9279 17.0546 13.8058C17.1856 13.6838 17.3712 13.6227 17.6113 13.6227H18.1351C18.4734 13.6227 18.7354 13.5673 18.9209 13.4563C19.1065 13.3343 19.1992 13.1456 19.1992 12.8904C19.1992 12.6685 19.1065 12.491 18.9209 12.3578C18.7463 12.2136 18.4844 12.1415 18.1351 12.1415C17.9496 12.1415 17.7586 12.1692 17.5621 12.2247C17.3657 12.2691 17.1747 12.3356 16.9892 12.4244C16.76 12.5465 16.5581 12.5853 16.3834 12.5409C16.2088 12.4854 16.0833 12.3856 16.0069 12.2413C15.9305 12.086 15.9142 11.9251 15.9578 11.7587C16.0015 11.5811 16.1215 11.4313 16.318 11.3093C16.6126 11.1318 16.9455 10.9986 17.3166 10.9098C17.6877 10.81 18.0587 10.7601 18.4298 10.7601C19.161 10.7601 19.7395 10.9265 20.1651 11.2594C20.5907 11.5922 20.8036 12.0416 20.8036 12.6075C20.8036 13.0624 20.6562 13.4452 20.3615 13.7559C20.0778 14.0666 19.7285 14.2663 19.3138 14.3551V14.1553C19.8268 14.1997 20.236 14.3773 20.5416 14.6879C20.8472 14.9875 21 15.3981 21 15.9196C21 16.3412 20.8854 16.7074 20.6562 17.018C20.4379 17.3176 20.1378 17.5506 19.7558 17.7171C19.3738 17.8724 18.9318 17.9501 18.4298 17.9501Z" fill="black"/>
</svg>
