<svg width="24" height="24" viewBox="0 0 24 24" fill="none" xmlns="http://www.w3.org/2000/svg">
<path fill-rule="evenodd" clip-rule="evenodd" d="M6 5C6 6.10457 5.10457 7 4 7C2.89543 7 2 6.10457 2 5C2 3.89543 2.89543 3 4 3C5.10457 3 6 3.89543 6 5ZM19 4H9C8.44772 4 8 4.44772 8 5C8 5.55228 8.44772 6 9 6H19C19.5523 6 20 5.55228 20 5C20 4.44772 19.5523 4 19 4ZM19 11H9C8.44772 11 8 11.4477 8 12C8 12.5523 8.44772 13 9 13H19C19.5523 13 20 12.5523 20 12C20 11.4477 19.5523 11 19 11ZM9 18H19C19.5523 18 20 18.4477 20 19C20 19.5523 19.5523 20 19 20H9C8.44772 20 8 19.5523 8 19C8 18.4477 8.44772 18 9 18ZM4 14C5.10457 14 6 13.1046 6 12C6 10.8954 5.10457 10 4 10C2.89543 10 2 10.8954 2 12C2 13.1046 2.89543 14 4 14ZM6 19C6 20.1046 5.10457 21 4 21C2.89543 21 2 20.1046 2 19C2 17.8954 2.89543 17 4 17C5.10457 17 6 17.8954 6 19Z" fill="black"/>
</svg>
