<svg width="24" height="24" viewBox="0 0 24 24" fill="none" xmlns="http://www.w3.org/2000/svg">
<path fill-rule="evenodd" clip-rule="evenodd" d="M11 12C8.79086 12 7 10.2091 7 8C7 5.79086 8.79086 4 11 4C13.2091 4 15 5.79086 15 8C15 10.2091 13.2091 12 11 12ZM11 15C14.1858 15 17.0455 15.5713 19 18.0625V20H3V18.0625C4.95452 15.5713 7.81415 15 11 15ZM18 15C18.5523 15 19 14.5523 19 14V13H20C20.5523 13 21 12.5523 21 12C21 11.4477 20.5523 11 20 11H19V10C19 9.44772 18.5523 9 18 9C17.4477 9 17 9.44772 17 10V11H16C15.4477 11 15 11.4477 15 12C15 12.5523 15.4477 13 16 13H17V14C17 14.5523 17.4477 15 18 15Z" fill="black"/>
</svg>
